TITLE ""
FILE "Step3_Track56.mp3" MP3
  TRACK 01 AUDIO
    TITLE "Step3_Track56_01"
    INDEX 01 00:00:00
  TRACK 02 AUDIO
    TITLE "Step3_Track56_02"
    INDEX 01 00:00:24
  TRACK 03 AUDIO
    TITLE "Step3_Track56_03"
    INDEX 01 00:02:03
  TRACK 04 AUDIO
    TITLE "Step3_Track56_04"
    INDEX 01 00:02:60
  TRACK 05 AUDIO
    TITLE "Step3_Track56_05"
    INDEX 01 00:03:58
  TRACK 06 AUDIO
    TITLE "Step3_Track56_06"
    INDEX 01 00:04:06
  TRACK 07 AUDIO
    TITLE "Step3_Track56_07"
    INDEX 01 00:06:70
  TRACK 08 AUDIO
    TITLE "Step3_Track56_08"
    INDEX 01 00:07:03
  TRACK 09 AUDIO
    TITLE "Step3_Track56_09"
    INDEX 01 00:07:69
  TRACK 10 AUDIO
    TITLE "Step3_Track56_10"
    INDEX 01 00:08:00
  TRACK 11 AUDIO
    TITLE "Step3_Track56_11"
    INDEX 01 00:11:04
  TRACK 12 AUDIO
    TITLE "Step3_Track56_12"
    INDEX 01 00:11:30
  TRACK 13 AUDIO
    TITLE "Step3_Track56_13"
    INDEX 01 00:12:25
  TRACK 14 AUDIO
    TITLE "Step3_Track56_14"
    INDEX 01 00:12:27
  TRACK 15 AUDIO
    TITLE "Step3_Track56_15"
    INDEX 01 00:15:22
  TRACK 16 AUDIO
    TITLE "Step3_Track56_16"
    INDEX 01 00:15:45
  TRACK 17 AUDIO
    TITLE "Step3_Track56_17"
    INDEX 01 00:16:37
  TRACK 18 AUDIO
    TITLE "Step3_Track56_18"
    INDEX 01 00:16:49
  TRACK 19 AUDIO
    TITLE "Step3_Track56_19"
    INDEX 01 00:18:61
  TRACK 20 AUDIO
    TITLE "Step3_Track56_20"
    INDEX 01 00:19:12
  TRACK 21 AUDIO
    TITLE "Step3_Track56_21"
    INDEX 01 00:20:03
  TRACK 22 AUDIO
    TITLE "Step3_Track56_22"
    INDEX 01 00:20:23
  TRACK 23 AUDIO
    TITLE "Step3_Track56_23"
    INDEX 01 00:23:45
  TRACK 24 AUDIO
    TITLE "Step3_Track56_24"
    INDEX 01 00:24:11
  TRACK 25 AUDIO
    TITLE "Step3_Track56_25"
    INDEX 01 00:25:08
  TRACK 26 AUDIO
    TITLE "Step3_Track56_26"
    INDEX 01 00:25:10
  TRACK 27 AUDIO
    TITLE "Step3_Track56_27"
    INDEX 01 00:28:05
  TRACK 28 AUDIO
    TITLE "Step3_Track56_28"
    INDEX 01 00:28:30
  TRACK 29 AUDIO
    TITLE "Step3_Track56_29"
    INDEX 01 00:29:34
  TRACK 30 AUDIO
    TITLE "Step3_Track56_30"
    INDEX 01 00:29:35
  TRACK 31 AUDIO
    TITLE "Step3_Track56_31"
    INDEX 01 00:32:01
  TRACK 32 AUDIO
    TITLE "Step3_Track56_32"
    INDEX 01 00:32:24
  TRACK 33 AUDIO
    TITLE "Step3_Track56_33"
    INDEX 01 00:33:16
  TRACK 34 AUDIO
    TITLE "Step3_Track56_34"
    INDEX 01 00:33:23
  TRACK 35 AUDIO
    TITLE "Step3_Track56_35"
    INDEX 01 00:35:56
  TRACK 36 AUDIO
    TITLE "Step3_Track56_36"
    INDEX 01 00:35:65
  TRACK 37 AUDIO
    TITLE "Step3_Track56_37"
    INDEX 01 00:36:67
  TRACK 38 AUDIO
    TITLE "Step3_Track56_38"
    INDEX 01 00:37:08
  TRACK 39 AUDIO
    TITLE "Step3_Track56_39"
    INDEX 01 00:39:22
  TRACK 40 AUDIO
    TITLE "Step3_Track56_40"
    INDEX 01 00:39:36
  TRACK 41 AUDIO
    TITLE "Step3_Track56_41"
    INDEX 01 00:40:35
  TRACK 42 AUDIO
    TITLE "Step3_Track56_42"
    INDEX 01 00:40:65
  TRACK 43 AUDIO
    TITLE "Step3_Track56_43"
    INDEX 01 00:44:39
